<?xml version="1.0" standalone="no"?>
<!DOCTYPE svg PUBLIC "-//W3C//DTD SVG 20010904//EN"
 "http://www.w3.org/TR/2001/REC-SVG-20010904/DTD/svg10.dtd">
<svg version="1.0" xmlns="http://www.w3.org/2000/svg"
 width="512.000000pt" height="512.000000pt" viewBox="0 0 512.000000 512.000000"
 preserveAspectRatio="xMidYMid meet">
<metadata>
Created by potrace 1.11, written by Peter Selinger 2001-2013
</metadata>
<g transform="translate(0.000000,512.000000) scale(0.100000,-0.100000)"
fill="#000000" stroke="none">
<path d="M2439 5097 c-37 -13 -86 -36 -110 -52 -79 -55 -145 -159 -165 -261
-4 -16 -6 -320 -7 -676 l0 -647 -26 -7 c-14 -4 -30 -8 -36 -10 -5 -1 -86 -26
-180 -54 -93 -28 -177 -53 -185 -55 -8 -2 -69 -20 -135 -39 -66 -20 -122 -36
-125 -36 -3 0 -5 46 -6 103 -1 120 -20 173 -83 230 -97 87 -262 80 -347 -16
-57 -64 -66 -103 -65 -293 l0 -173 -67 -20 c-447 -132 -615 -182 -760 -225
-46 -13 -86 -27 -89 -30 -7 -7 -7 -566 1 -573 3 -3 42 0 88 6 46 7 99 14 118
17 19 2 49 6 65 9 17 3 50 7 75 10 25 3 56 8 70 10 14 2 49 7 79 10 30 4 61 8
70 10 24 4 124 19 141 20 20 2 131 17 151 20 9 2 40 6 69 10 29 4 61 8 70 10
9 2 41 6 71 10 30 3 61 8 69 10 8 2 40 7 70 10 30 3 66 8 80 10 14 2 45 7 70
10 48 6 114 15 141 20 9 2 40 6 70 10 55 6 65 8 159 21 30 5 60 9 65 9 35 5
133 18 150 21 11 2 47 7 80 10 33 3 65 7 70 7 7 1 10 -226 11 -665 l1 -666
-51 -16 c-28 -8 -220 -65 -426 -127 -206 -61 -378 -113 -382 -115 -13 -8 -10
-724 2 -724 10 0 699 202 845 248 11 3 22 7 25 7 7 2 92 25 112 31 14 4 42
-43 145 -250 70 -141 130 -256 133 -256 3 0 61 113 130 251 69 138 128 253
132 255 4 3 106 -25 228 -61 300 -89 441 -130 600 -177 74 -22 145 -43 158
-45 l22 -5 0 360 c0 238 -4 363 -10 367 -10 6 -124 41 -160 49 -8 2 -85 25
-170 50 -85 26 -191 58 -235 71 -44 13 -120 36 -170 51 -97 30 -101 31 -113
33 -5 0 -9 302 -9 670 0 636 1 669 18 666 10 -2 46 -6 80 -10 35 -4 66 -8 69
-10 3 -2 34 -6 70 -10 36 -3 72 -8 80 -10 8 -2 53 -9 100 -15 47 -5 94 -12
105 -14 11 -2 47 -7 80 -11 32 -4 66 -8 75 -10 8 -1 38 -6 65 -9 28 -4 61 -9
75 -11 14 -2 63 -9 110 -15 47 -6 96 -13 110 -15 14 -2 43 -7 65 -10 75 -9
110 -14 145 -19 42 -7 104 -15 156 -21 22 -3 50 -7 64 -10 14 -2 49 -7 79 -10
30 -4 63 -9 75 -11 20 -4 46 -7 131 -19 22 -2 74 -10 115 -16 126 -18 174 -23
209 -24 l34 0 1 286 1 286 -195 58 c-107 31 -215 63 -240 71 -25 7 -130 38
-235 69 -104 31 -204 61 -221 66 l-31 10 -1 173 c0 152 -3 180 -20 220 -88
198 -359 203 -453 8 -17 -34 -22 -65 -24 -143 -1 -54 -4 -101 -6 -104 -3 -2
-157 40 -343 95 -186 55 -339 100 -340 100 -2 0 -3 294 -3 653 -1 676 -1 685
-44 781 -38 88 -158 187 -254 211 -72 18 -159 14 -226 -8z"/>
</g>
</svg>
